# xmcd CD database file
#
# Track frame offsets:
#	150
#	13224
#	24194
#	33875
#	47841
#	62326
#	73782
#	86366
#	99469
#	110282
#	125444
#	136910
#	150233
#
# Disc length: 2193 seconds
#
# Revision: 0
# Processed by: cddbd v1.5.1PL2 Copyright (c) Steve Scherf et al.
# Submitted via: CDex 1.51
#
DISCID=96088f0d
DTITLE=Marc Pircher and Zellberg Buam - A Bärige Musi aus dem Zillertal
DYEAR=2006
DGENRE=Volksmusik
TTITLE0=Mit Musik ins Wochenende (Zellberg Buam and Marc Pircher)
TTITLE1=Hey Diandl spürst es so wie i (Marc Pircher)
TTITLE2=I bin der Geigenmusikant (Zellberg Buam)
TTITLE3=I will endlich wieder hoam (Marc Pircher)
TTITLE4=Spiel noch einmal dein Geigenlied (Zellberg Buam)
TTITLE5=A Zillertaler Musi (Marc Pircher)
TTITLE6=Urig and Echt (Zellberg Buam)
TTITLE7=Komm heut Nacht in meine Arme (Marc Pircher)
TTITLE8=Die Zillertalerin (Zellberg Buam)
TTITLE9=Jetzt seh' ich schon Maria Brettfall (Marc Pircher)
TTITLE10=des war der Johann Strauß (Zellberg Buam)
TTITLE11=Ja du gibst mir Berge (Marc Pircher)
TTITLE12=Zillertaler Hochzeitsmarsch (Zellberg Buam)
EXTD=YEAR: 2006
EXTT0=
EXTT1=
EXTT2=
EXTT3=
EXTT4=
EXTT5=
EXTT6=
EXTT7=
EXTT8=
EXTT9=
EXTT10=
EXTT11=
EXTT12=
PLAYORDER=
